# xmcd CD database file
#
# Track frame offsets:
#	150
#	15165
#	28069
#	44951
#	59928
#	74741
#	89819
#	103869
#	118678
#	133205
#	147840
#	162803
#	178957
#	194473
#	212163
#
# Disc length: 3021 seconds
#
# Revision: 0
# Processed by: cddbd v1.5.2PL0 Copyright (c) Steve Scherf et al.
# Submitted via: CDex 1.70beta2
#
DISCID=f80bcb0f
DTITLE=Annett Louisan - Das optimale Leben
DYEAR=2007
DGENRE=Jazz
TTITLE0=das alles wär nie passiert
TTITLE1=kleine zwischenfälle
TTITLE2=was haben wir gesucht
TTITLE3=er
TTITLE4=die wahrheit
TTITLE5=wenn man sich nicht mehr liebt
TTITLE6=ich -be dich
TTITLE7=die sein
TTITLE8=mein innerer schweinehund
TTITLE9=gendefekt
TTITLE10=unbekümmert
TTITLE11=rosenkrieg
TTITLE12=dings
TTITLE13=ende dezember
TTITLE14=der kleine unterschied
EXTD=YEAR: 2007
EXTT0=
EXTT1=
EXTT2=
EXTT3=
EXTT4=
EXTT5=
EXTT6=
EXTT7=
EXTT8=
EXTT9=
EXTT10=
EXTT11=
EXTT12=
EXTT13=
EXTT14=
PLAYORDER=
